<svg xmlns="http://www.w3.org/2000/svg" version="1.1" xmlns:xlink="http://www.w3.org/1999/xlink" width="32" height="32"><svg xmlns="http://www.w3.org/2000/svg" version="1.1" xmlns:xlink="http://www.w3.org/1999/xlink" width="32" height="32"><svg width="32" height="32" viewBox="0 0 32 32" fill="none" xmlns="http://www.w3.org/2000/svg">
<path d="M14.3467 11.31C14.5067 11.6364 14.4 12.0337 14.0933 12.2182C13.7867 12.3885 13.4 12.2749 13.24 11.9486C13.0667 11.6222 13.1867 11.2106 13.4933 11.0404C13.7867 10.8559 14.1733 10.9836 14.3467 11.31C14.3333 11.31 14.3333 11.31 14.3467 11.31ZM11.24 16.5322C11.0667 16.6315 11 16.8727 11.0933 17.0714C11.1867 17.2559 11.4133 17.3268 11.5867 17.2275C11.5867 17.2275 11.5867 17.2275 11.6 17.2275C11.7733 17.1282 11.8533 16.9011 11.76 16.7024V16.6882C11.64 16.5038 11.4133 16.4328 11.24 16.5322ZM11.1733 14.9286C10.96 15.0563 10.8933 15.3259 11 15.553C11.12 15.78 11.3733 15.8652 11.5867 15.7375C11.8 15.6098 11.88 15.3401 11.76 15.1131C11.6533 14.886 11.3867 14.8009 11.1733 14.9286ZM11.5733 13.3818C11.3333 13.5237 11.24 13.8359 11.3733 14.0914C11.5067 14.3468 11.8 14.4461 12.04 14.3042C12.28 14.1623 12.3733 13.8501 12.24 13.5947C12.1067 13.3392 11.8 13.2399 11.5733 13.3818ZM12.36 12.0479C12.0933 12.1898 12 12.5588 12.1333 12.8426C12.1333 12.8426 12.1333 12.8426 12.1333 12.8568C12.28 13.1406 12.6133 13.2541 12.88 13.098C13.1467 12.9419 13.2533 12.5871 13.1067 12.3033C12.9733 12.0053 12.64 11.8918 12.36 12.0479C12.3733 12.0479 12.3733 12.0479 12.36 12.0479ZM11.76 18.0647C11.6133 18.1499 11.56 18.3486 11.64 18.5047C11.72 18.6608 11.9067 18.7175 12.0533 18.6324C12.2 18.5472 12.2533 18.3486 12.1733 18.1783C12.0933 18.0364 11.9067 17.9796 11.76 18.0647ZM18.8933 12.5871C18.9867 12.7716 19.2133 12.8426 19.4 12.7432C19.5733 12.6439 19.64 12.4027 19.5467 12.204C19.4533 12.0195 19.2267 11.9486 19.0533 12.0479C18.8667 12.1472 18.8 12.3885 18.8933 12.5871ZM17.64 11.7357C17.7467 11.9628 18.0133 12.0337 18.2267 11.9202C18.44 11.7925 18.52 11.5228 18.4 11.2958C18.2933 11.0687 18.0267 10.9836 17.8133 11.1113C17.6133 11.2248 17.5333 11.5086 17.64 11.7357ZM16.1867 11.3242C16.3067 11.5796 16.6133 11.6647 16.84 11.537C17.08 11.3951 17.1733 11.0829 17.04 10.8275C16.9067 10.5721 16.6133 10.4727 16.3867 10.6146C16.1467 10.7424 16.0667 11.0687 16.1867 11.3242ZM14.68 11.3809C14.8267 11.6647 15.16 11.7783 15.4267 11.6222C15.6933 11.4661 15.8 11.1113 15.6533 10.8133C15.5067 10.5295 15.16 10.4302 14.8933 10.6004C14.64 10.7707 14.5467 11.1113 14.68 11.3809ZM19.84 13.7933C19.92 13.9494 20.1067 14.0062 20.2533 13.9211C20.4 13.8359 20.4533 13.6514 20.3867 13.4812C20.3067 13.3251 20.12 13.2541 19.9733 13.3392C19.8133 13.4244 19.7467 13.6372 19.84 13.7933ZM18.7733 20.0373C18.6133 19.7109 18.24 19.5831 17.9333 19.7534C17.9333 19.7534 17.9333 19.7534 17.92 19.7534C17.6133 19.9237 17.5067 20.3211 17.6667 20.6474C17.6667 20.6474 17.6667 20.6474 17.6667 20.6616C17.8267 20.988 18.2133 21.1016 18.52 20.9313C18.8267 20.761 18.9333 20.3636 18.7733 20.0373ZM13.1067 19.3987C13.0133 19.2142 12.7867 19.1432 12.6133 19.2426C12.44 19.3419 12.3733 19.5831 12.4667 19.7676C12.56 19.9521 12.7733 20.0231 12.96 19.9237C12.96 19.9237 12.96 19.9237 12.9733 19.9237C13.1333 19.8244 13.2 19.5831 13.1067 19.3987ZM14.36 20.2359C14.24 20.0089 13.9867 19.9379 13.7733 20.0514C13.56 20.165 13.48 20.4346 13.6 20.6616C13.6 20.6616 13.6 20.6616 13.6 20.6758C13.7067 20.9029 13.9733 20.988 14.1867 20.8603C14.4 20.7468 14.48 20.463 14.36 20.2359ZM15.8133 20.6616C15.6933 20.4062 15.3867 20.3211 15.1467 20.4488C14.9067 20.5907 14.8267 20.9029 14.9467 21.1583C15.08 21.4137 15.3733 21.5131 15.6133 21.3712C15.8533 21.2293 15.9467 20.9171 15.8133 20.6616ZM17.3333 20.5907C17.1867 20.3069 16.8533 20.1933 16.5867 20.3494C16.32 20.5055 16.2267 20.8603 16.3733 21.1441C16.5067 21.4279 16.84 21.5415 17.1067 21.3854C17.1067 21.3854 17.12 21.3854 17.12 21.3712C17.3733 21.2435 17.4667 20.8745 17.3333 20.5907ZM20.76 15.4537C20.9467 15.3401 21.0133 15.0989 20.92 14.9144C20.8267 14.7299 20.6 14.659 20.4267 14.7583C20.2533 14.8576 20.1733 15.0989 20.2667 15.2834C20.2667 15.2834 20.2667 15.2834 20.2667 15.2976C20.36 15.4679 20.5867 15.5388 20.76 15.4537ZM20.8267 17.0572C21.04 16.9295 21.1067 16.6599 21 16.4328C20.8933 16.2058 20.6267 16.1206 20.4267 16.2483C20.2133 16.3761 20.1333 16.6457 20.2533 16.8727C20.36 17.0856 20.6267 17.1707 20.8267 17.0572ZM20.44 18.604C20.68 18.4621 20.7733 18.1499 20.64 17.8945C20.5067 17.639 20.2133 17.5397 19.9733 17.6816C19.7333 17.8235 19.64 18.1357 19.7733 18.3911C19.9067 18.6324 20.2 18.7317 20.44 18.604ZM19.64 19.9237C19.9067 19.7818 20.0133 19.4129 19.8667 19.129C19.72 18.8452 19.3867 18.7317 19.12 18.8878C18.8533 19.0439 18.7467 19.3987 18.8933 19.6825C19.04 19.9805 19.36 20.0798 19.64 19.9237C19.64 19.9379 19.64 19.9379 19.64 19.9237ZM18.5733 9.70643C18.4533 10.1605 18 10.416 17.5733 10.2882C17.1467 10.1605 16.9067 9.67805 17.0267 9.22395C17.0267 9.22395 17.0267 9.22395 17.0267 9.20976C17.16 8.75565 17.6 8.50022 18.0267 8.62794C18.4667 8.78404 18.7067 9.25233 18.5733 9.70643ZM10.84 11.7357C10.6267 11.6789 10.4 11.8067 10.3333 12.0337C10.28 12.2608 10.4133 12.4878 10.6267 12.5446C10.8267 12.6013 11.04 12.4736 11.1067 12.2608C11.1733 12.0479 11.04 11.8067 10.84 11.7357ZM12.24 10.1038C11.9733 10.0186 11.7067 10.1747 11.6267 10.4585C11.5467 10.7282 11.6933 11.0262 11.96 11.1113C12.2267 11.1965 12.4933 11.0262 12.5733 10.7565C12.64 10.4727 12.4933 10.1889 12.24 10.1038ZM14.0267 8.94013C13.6933 8.8408 13.3467 9.03947 13.2533 9.39424C13.16 9.749 13.3467 10.118 13.68 10.2173C14.0133 10.3166 14.36 10.118 14.4533 9.77738C14.5467 9.42262 14.36 9.05366 14.0267 8.94013ZM16.0133 8.47184C15.64 8.35831 15.2533 8.57118 15.1333 8.96852C15.0267 9.36585 15.24 9.77738 15.6 9.89091C15.9733 10.0044 16.36 9.77738 16.4667 9.38004C16.6 9.01109 16.4 8.58537 16.0133 8.47184C16.0267 8.47184 16.0267 8.47184 16.0133 8.47184ZM9.94667 13.765C9.78667 13.7224 9.62667 13.8075 9.58667 13.9778C9.53333 14.1481 9.62667 14.3184 9.78667 14.3752C9.94667 14.4177 10.1067 14.3326 10.16 14.1623C10.2 13.992 10.1067 13.8217 9.94667 13.765ZM22.0133 15.6807C21.9467 15.9078 22.0667 16.1348 22.28 16.2058C22.4933 16.2767 22.7067 16.149 22.7733 15.922C22.84 15.6949 22.72 15.4678 22.5067 15.3969C22.2933 15.3259 22.08 15.4537 22.0133 15.6807ZM21.5467 13.5521C21.4667 13.8359 21.6133 14.1197 21.88 14.2049C22.1467 14.29 22.4133 14.1339 22.4933 13.8501C22.5733 13.5663 22.4267 13.2825 22.16 13.1973C21.9067 13.1264 21.6267 13.2825 21.5467 13.5521ZM20.4667 11.6506C20.3733 12.0053 20.56 12.3743 20.8933 12.4736C21.2267 12.573 21.5733 12.3743 21.6667 12.0195C21.76 11.6647 21.5733 11.2958 21.2533 11.1965C20.9067 11.0971 20.56 11.2958 20.4667 11.6506ZM18.9333 10.1605C18.8267 10.5579 19.04 10.9694 19.4133 11.0829C19.7867 11.1965 20.1733 10.9694 20.28 10.5721C20.3867 10.1747 20.1733 9.76319 19.8133 9.64967C19.44 9.53614 19.0533 9.76319 18.9333 10.1605ZM21.8533 17.8235C21.8133 17.9938 21.8933 18.1641 22.0533 18.2208C22.2133 18.2776 22.3733 18.1783 22.4267 18.008C22.48 17.8377 22.3867 17.6674 22.2267 17.6106C22.0667 17.5539 21.8933 17.6532 21.8533 17.8235ZM14.9733 22.7619C15.1067 22.3078 14.8533 21.8253 14.4267 21.6976C14 21.5698 13.5467 21.8253 13.4267 22.2794C13.2933 22.7335 13.5467 23.216 13.9733 23.3437C14.4 23.4856 14.8533 23.216 14.9733 22.7619ZM9.98667 16.3051C10.0533 16.078 9.93333 15.851 9.72 15.78C9.50667 15.7091 9.29333 15.851 9.22667 16.0639C9.16 16.2909 9.28 16.518 9.49333 16.5889C9.70667 16.6599 9.92 16.5322 9.98667 16.3051ZM10.4533 18.4195C10.5333 18.1499 10.3867 17.8519 10.12 17.7809C9.86667 17.6958 9.58667 17.8519 9.50667 18.1215V18.1357C9.42667 18.4195 9.58667 18.7033 9.84 18.7885C10.1067 18.8594 10.3733 18.7033 10.4533 18.4195ZM11.5333 20.3353C11.6267 19.9805 11.44 19.6115 11.1067 19.498C10.7733 19.3987 10.4267 19.5973 10.3333 19.9521C10.24 20.3069 10.4267 20.6758 10.7467 20.7752C11.0933 20.8887 11.44 20.69 11.5333 20.3353ZM13.0667 21.8253C13.1733 21.4279 12.96 21.0164 12.5867 20.8887C12.2133 20.7752 11.8267 21.0022 11.72 21.3854C11.72 21.3854 11.72 21.3854 11.72 21.3996C11.6133 21.7969 11.8267 22.2084 12.2 22.322C12.56 22.4497 12.96 22.2226 13.0667 21.8253ZM21.1733 20.2501C21.3867 20.3211 21.6133 20.1933 21.6667 19.9663C21.7333 19.7392 21.6133 19.5122 21.4 19.4412C21.1867 19.3703 20.9733 19.5122 20.9067 19.7251C20.84 19.9379 20.96 20.1792 21.1733 20.2501ZM19.7733 21.882C20.0267 21.9672 20.3067 21.8111 20.3867 21.5273C20.4667 21.2577 20.32 20.9596 20.0667 20.8745C19.8 20.7894 19.5333 20.9455 19.4533 21.2293C19.36 21.5131 19.5067 21.7969 19.7733 21.882ZM17.9733 23.0457C18.3067 23.145 18.6533 22.9463 18.7467 22.5916C18.84 22.2368 18.6533 21.8678 18.32 21.7685C17.9867 21.6692 17.64 21.8678 17.5467 22.2226C17.4533 22.5632 17.64 22.9321 17.9733 23.0457ZM15.9867 23.514C16.36 23.6275 16.7467 23.4146 16.8533 23.0173C16.8533 23.0173 16.8533 23.0173 16.8533 23.0031C16.96 22.6058 16.7467 22.1942 16.3733 22.0665C16 21.953 15.6133 22.18 15.4933 22.5774C15.4 22.9889 15.6133 23.4004 15.9867 23.514ZM22.6 10.1463C22.2 10.5863 21.5467 10.6146 21.1333 10.1889C20.72 9.77738 20.6933 9.08204 21.0933 8.62794C21.48 8.18803 22.1333 8.15965 22.56 8.57118C22.9733 8.9969 23 9.70643 22.6 10.1463ZM12.2533 7.63459C12.0533 7.43592 11.7333 7.43592 11.5333 7.66297C11.3333 7.87583 11.3467 8.21641 11.5467 8.42927C11.7467 8.62794 12.08 8.62794 12.2667 8.40089C12.4667 8.18803 12.4667 7.84745 12.2533 7.63459ZM14.8533 6.58448C14.6 6.32905 14.2 6.34324 13.96 6.61286C13.72 6.88248 13.7333 7.3082 13.9867 7.56364C14.24 7.81907 14.64 7.80488 14.88 7.53525C15.12 7.26563 15.1067 6.83991 14.8533 6.58448ZM17.6267 6.37162C17.3067 6.04523 16.8 6.05942 16.4933 6.4C16.2 6.75477 16.2267 7.29401 16.56 7.60621C16.88 7.90421 17.36 7.89002 17.6667 7.57783C17.9733 7.23725 17.9467 6.698 17.6267 6.37162ZM20.2667 7.09534C19.9067 6.72639 19.3333 6.74058 18.9867 7.13792C18.64 7.52106 18.6667 8.13126 19.0267 8.50022C19.3867 8.86918 19.96 8.8408 20.3067 8.45765C20.64 8.06031 20.6267 7.45011 20.2667 7.09534ZM10.0533 9.47938C9.89333 9.32328 9.65333 9.33747 9.52 9.49357C9.37333 9.64967 9.38667 9.9051 9.53333 10.0612C9.68 10.2173 9.92 10.2031 10.0667 10.047C10.2133 9.89091 10.2133 9.63548 10.0533 9.47938ZM23.3333 19.498C23.1333 19.7109 23.1467 20.0656 23.36 20.2643C23.5733 20.463 23.8933 20.4488 24.08 20.2217C24.2667 20.0089 24.2533 19.6683 24.0533 19.4696C23.8533 19.271 23.5333 19.271 23.3333 19.498ZM24 16.6882C23.76 16.9579 23.7733 17.3836 24.0267 17.639C24.28 17.8945 24.68 17.8803 24.92 17.6106C25.16 17.341 25.1467 16.9153 24.8933 16.6599C24.6267 16.4044 24.24 16.4186 24 16.6882ZM23.7867 13.7224C23.48 14.063 23.4933 14.6022 23.8133 14.9286C24.1333 15.255 24.64 15.2408 24.9467 14.9002C25.24 14.5455 25.2133 14.0062 24.8933 13.694C24.5867 13.3676 24.0933 13.396 23.7867 13.7224ZM22.8267 10.9694C22.48 11.3525 22.5067 11.9628 22.8667 12.3317C23.2267 12.7007 23.8 12.6723 24.1467 12.2891C24.4933 11.906 24.4667 11.2958 24.1067 10.9268C23.7333 10.5721 23.16 10.5863 22.8267 10.9694ZM21.9333 21.9388C21.7867 22.1091 21.8 22.3645 21.9467 22.5064C22.0933 22.6625 22.3333 22.6483 22.48 22.4922C22.6267 22.3361 22.6133 22.0807 22.4667 21.9246C22.4667 21.9246 22.4667 21.9246 22.4533 21.9104C22.32 21.7685 22.08 21.7685 21.9333 21.9388ZM10.9067 23.3579C11.2933 22.9038 11.2667 22.2084 10.8533 21.7969C10.44 21.3854 9.78667 21.4137 9.4 21.8395C9.01333 22.2936 9.05333 22.9889 9.48 23.4004C9.89333 23.7836 10.52 23.7694 10.9067 23.3579ZM8.66667 12.4878C8.86667 12.2749 8.85333 11.9202 8.64 11.7215C8.44 11.5086 8.12 11.5228 7.92 11.7357C7.72 11.9628 7.73333 12.3033 7.94667 12.5162C8.14667 12.7149 8.46667 12.7007 8.66667 12.4878ZM8.01333 15.2976C8.25333 15.0279 8.24 14.6022 7.98667 14.3468C7.72 14.1055 7.33333 14.1197 7.09333 14.4035C6.86667 14.6732 6.88 15.0705 7.12 15.3259C7.37333 15.5814 7.77333 15.5672 8.01333 15.2976ZM8.21333 18.2634C8.52 17.9228 8.50667 17.3836 8.17333 17.0572C7.85333 16.7308 7.34667 16.745 7.04 17.0998C6.73333 17.4404 6.74667 17.9796 7.08 18.306C7.4 18.6182 7.90667 18.604 8.21333 18.2634ZM9.18667 21.0164C9.53333 20.6333 9.50667 20.0231 9.14667 19.6541C8.78667 19.2851 8.21333 19.3135 7.88 19.6967C7.53333 20.0798 7.54667 20.69 7.90667 21.059C8.26667 21.4137 8.84 21.3996 9.18667 21.0164ZM19.7467 24.3512C19.9467 24.5641 20.28 24.5499 20.4667 24.3228C20.6533 24.11 20.6533 23.7694 20.44 23.5565C20.24 23.3437 19.92 23.3579 19.72 23.5707C19.5333 23.7978 19.5467 24.1384 19.7467 24.3512ZM17.16 25.4013C17.4133 25.6568 17.8133 25.6426 18.0533 25.3729C18.2933 25.1033 18.28 24.6776 18.0267 24.4222C17.7733 24.1667 17.3733 24.1809 17.1333 24.4506C16.8933 24.7202 16.9067 25.1459 17.16 25.4013ZM14.3733 25.6142C14.6933 25.9406 15.2 25.9264 15.5067 25.5858C15.8133 25.2452 15.8 24.706 15.48 24.3796C15.16 24.0532 14.6533 24.0674 14.3467 24.408C14.0267 24.7486 14.0533 25.2878 14.3733 25.6142ZM11.7467 24.8905C12.1067 25.2594 12.68 25.231 13.0133 24.8479C13.36 24.4647 13.3333 23.8545 12.9733 23.4856C12.6133 23.1166 12.04 23.145 11.6933 23.5282C11.36 23.9255 11.3867 24.5357 11.7467 24.8905ZM26.8133 12.4878C26.1733 12.7858 25.44 12.4594 25.16 11.7925C24.8933 11.1113 25.1867 10.3166 25.8133 10.0328C26.4533 9.749 27.1867 10.0896 27.4533 10.7707C27.7067 11.4235 27.4267 12.1898 26.8133 12.4878ZM17.9867 3.97339C17.9067 3.57605 17.5467 3.32062 17.1733 3.39157C16.8 3.46253 16.56 3.85987 16.6267 4.25721C16.72 4.65455 17.0933 4.89579 17.4667 4.81064C17.8133 4.7255 18.04 4.35654 17.9867 3.97339ZM20.96 4.65455C20.84 4.17206 20.3867 3.88825 19.9467 4.00177C19.4933 4.1153 19.2267 4.61197 19.3333 5.08027C19.4533 5.56275 19.9067 5.84656 20.36 5.71885C20.8133 5.61951 21.08 5.13703 20.96 4.65455ZM23.7067 6.07361C23.5333 5.4918 22.9467 5.16541 22.4 5.3357C21.8533 5.52018 21.5333 6.14457 21.7067 6.72639C21.8933 7.3082 22.4933 7.6204 23.04 7.42173C23.5733 7.23725 23.8667 6.64124 23.7067 6.07361ZM25.9067 8.14545C25.68 7.50687 25.0267 7.18049 24.4267 7.42173C23.8267 7.64878 23.52 8.35832 23.7467 8.9969C23.9733 9.63548 24.6267 9.96186 25.2267 9.72062C25.8133 9.49357 26.12 8.78403 25.9067 8.14545ZM12.0133 4.79645C11.9067 4.52683 11.6 4.39911 11.3467 4.51264C11.0933 4.64036 10.9733 4.95255 11.0933 5.22217C11.2 5.4918 11.5067 5.61951 11.76 5.50599C12.0133 5.39246 12.1333 5.06608 12.0133 4.79645ZM24.6133 22.5348C24.3067 22.7761 24.24 23.2443 24.4667 23.5707C24.6933 23.8829 25.1067 23.9681 25.4133 23.741C25.72 23.4998 25.8 23.0457 25.5733 22.7193C25.36 22.3787 24.92 22.2936 24.6133 22.5348ZM25.9867 19.6541C25.5867 19.9095 25.4667 20.463 25.7067 20.8887C25.9467 21.3144 26.4667 21.4421 26.8667 21.1867C26.88 21.1867 26.88 21.1725 26.8933 21.1725C27.28 20.9029 27.3867 20.3494 27.1333 19.9379C26.88 19.5264 26.3733 19.3987 25.9867 19.6541ZM26.64 16.4044C26.1333 16.7024 25.96 17.3836 26.24 17.9228C26.52 18.4621 27.16 18.6466 27.6667 18.3486C28.1733 18.0506 28.3467 17.3694 28.0667 16.8302C27.7867 16.3051 27.1467 16.1064 26.64 16.4044ZM26.6 13.1548C26.0267 13.4528 25.8 14.1907 26.08 14.8009C26.36 15.4111 27.0533 15.6523 27.6267 15.3543C28.2 15.0563 28.4267 14.3184 28.1467 13.7082C27.8667 13.1122 27.1733 12.8568 26.6 13.1548ZM20.2533 26.4798C20 26.5933 19.88 26.9197 19.9867 27.1894C20.0933 27.459 20.4 27.5867 20.6533 27.4732C20.9067 27.3596 21.0267 27.0333 20.92 26.7636C20.8 26.494 20.5067 26.3663 20.2533 26.4798ZM6.18667 21.953C6.82667 21.655 7.12 20.8745 6.84 20.1933C6.56 19.5122 5.82667 19.2 5.18667 19.498C4.54667 19.7818 4.25333 20.5765 4.53333 21.2576C4.8 21.9388 5.54667 22.251 6.18667 21.953ZM7.38667 9.451C7.70667 9.22395 7.77333 8.75565 7.54667 8.42927C7.33333 8.08869 6.90667 8.01774 6.58667 8.24479C6.28 8.48603 6.2 8.94013 6.41333 9.26652C6.64 9.6071 7.08 9.69224 7.38667 9.451ZM6.01333 12.3317C6.4 12.0621 6.52 11.5086 6.26667 11.0971C6.02667 10.6856 5.50667 10.5579 5.10667 10.8133C4.70667 11.0687 4.6 11.6364 4.85333 12.0479C5.09333 12.4736 5.61333 12.6013 6.01333 12.3317ZM5.36 15.5814C5.86667 15.2976 6.06667 14.6164 5.8 14.0772C5.53333 13.5379 4.89333 13.3251 4.38667 13.6089C4.37333 13.6231 4.34667 13.6231 4.33333 13.6373C3.82667 13.9353 3.65333 14.6164 3.93333 15.1557C4.21333 15.6807 4.85333 15.8794 5.36 15.5814ZM5.4 18.831C5.97333 18.533 6.2 17.7951 5.92 17.1849C5.64 16.5747 4.94667 16.3335 4.37333 16.6315C4.37333 16.6315 4.37333 16.6315 4.36 16.6315C3.78667 16.9295 3.56 17.6674 3.84 18.2776C4.13333 18.8736 4.82667 19.129 5.4 18.831ZM14.0133 28.0124C14.0933 28.4098 14.4533 28.6794 14.8267 28.5942C15.2 28.5091 15.44 28.1259 15.3733 27.7286C15.2933 27.3313 14.9333 27.0758 14.56 27.1468C14.1867 27.2319 13.9467 27.6151 14.0133 28.0124ZM11.04 27.3313C11.1467 27.8137 11.6133 28.0976 12.0533 27.984C12.5067 27.8563 12.7733 27.3738 12.6533 26.8914C12.5333 26.4089 12.08 26.1251 11.6267 26.2528C11.2 26.3663 10.92 26.8488 11.04 27.3313ZM8.29333 25.9122C8.46667 26.494 9.04 26.8204 9.6 26.6501C9.6 26.6501 9.6 26.6501 9.61333 26.6501C10.16 26.4656 10.48 25.8412 10.3067 25.2594C10.1333 24.6776 9.54667 24.337 8.98667 24.5215C8.42667 24.706 8.12 25.3304 8.29333 25.9122ZM6.10667 23.8404C6.32 24.4789 6.98667 24.8053 7.58667 24.5641C7.58667 24.5641 7.58667 24.5641 7.6 24.5641C8.2 24.3228 8.48 23.5991 8.25333 22.9747C8.02667 22.3645 7.38667 22.0523 6.8 22.2652C6.18667 22.4922 5.88 23.2018 6.10667 23.8404ZM22.6267 24.9188C22.4 25.1175 22.3733 25.4865 22.56 25.7277C22.7467 25.9548 23.0667 25.9973 23.2933 25.8129C23.5333 25.6284 23.5867 25.2594 23.4 25.004C23.2133 24.7486 22.88 24.6918 22.64 24.8905C22.6533 24.9047 22.64 24.9188 22.6267 24.9188ZM17.5467 27.2461C17.2533 27.2887 17.04 27.5867 17.0933 27.8989C17.1333 28.2111 17.4133 28.4381 17.7067 28.3814C18 28.3388 18.2133 28.0408 18.16 27.7286C18.12 27.4306 17.8533 27.2035 17.5467 27.2461ZM14.9067 4.07273C14.8667 3.76053 14.5867 3.53348 14.2933 3.59024C14 3.63282 13.7867 3.93082 13.84 4.24302C13.88 4.55521 14.16 4.78226 14.4533 4.7255C14.7467 4.68293 14.96 4.39911 14.9067 4.07273ZM9.45333 6.25809C9.26667 6.00266 8.93333 5.96009 8.69333 6.15876C8.45333 6.35743 8.41333 6.72639 8.6 6.96763C8.78667 7.22306 9.13333 7.26563 9.36 7.06696C9.6 6.86829 9.64 6.49933 9.45333 6.25809ZM30.3867 17.71C29.4933 17.71 28.7733 16.9437 28.7733 15.9929C28.7733 15.0421 29.4933 14.2758 30.3733 14.2758C30.3733 14.2758 30.3733 14.2758 30.3867 14.2758C31.28 14.2758 32 15.0421 32 15.9787C32 16.9437 31.28 17.71 30.3867 17.71ZM24.0667 2.92328C24.1733 2.41242 23.8667 1.91574 23.3867 1.80222C22.9067 1.68869 22.44 2.01508 22.3333 2.52594C22.2267 3.03681 22.5333 3.53348 23.0133 3.64701C23.4933 3.76053 23.96 3.43415 24.0667 2.92328ZM27.24 5.3357C27.3333 4.71131 26.9333 4.12949 26.3467 4.03016C25.76 3.94501 25.2133 4.38492 25.1333 5.00931C25.0533 5.61951 25.44 6.18714 26.0133 6.28647C26.6 6.4 27.1467 5.97428 27.24 5.3357ZM31.3867 12.1047C31.4267 11.239 30.8 10.5011 29.9867 10.4443C29.1733 10.4018 28.48 11.0545 28.4267 11.9202C28.3733 12.7858 29 13.5379 29.8133 13.5947C30.6267 13.6514 31.3333 12.9845 31.3867 12.1188C31.3867 12.133 31.3867 12.1188 31.3867 12.1047ZM16.6533 0.681153C16.6533 0.298004 16.36 0 16 0C15.64 0.0141907 15.36 0.326386 15.3733 0.709534C15.3867 1.0643 15.6533 1.36231 16 1.3765C16.36 1.36231 16.6533 1.0643 16.6533 0.681153ZM23.0133 28.3388C22.5333 28.4523 22.2267 28.949 22.3333 29.4599C22.44 29.9707 22.9067 30.2971 23.3867 30.1836C23.8667 30.0701 24.1733 29.5734 24.0667 29.0625C23.96 28.5517 23.4933 28.2253 23.0133 28.3388ZM26.0133 25.6851C25.4267 25.7845 25.0133 26.3663 25.1067 26.9907C25.2 27.6151 25.7467 28.055 26.3333 27.9557C26.3467 27.9557 26.3467 27.9557 26.36 27.9557C26.9467 27.8563 27.3467 27.2603 27.24 26.6359C27.1333 26.0257 26.5867 25.6 26.0133 25.6851ZM28.32 22.2226C27.5867 22.3078 27.0533 23.0031 27.12 23.7978C27.1867 24.5925 27.8533 25.1459 28.6 25.0749C29.3333 24.9898 29.8667 24.2945 29.8 23.514C29.72 22.7193 29.0533 22.1517 28.32 22.2226ZM29.8267 18.3769C29.0133 18.4195 28.3867 19.1716 28.4267 20.0373C28.4667 20.9029 29.16 21.5698 29.9733 21.5273C29.9733 21.5273 29.9733 21.5273 29.9867 21.5273C30.8 21.4847 31.4267 20.7468 31.3867 19.8812C31.3333 19.0013 30.64 18.3344 29.8267 18.3769ZM16 30.6235C15.64 30.6377 15.36 30.9499 15.3733 31.333C15.3867 31.702 15.6533 32 16 32C16.36 32 16.64 31.6878 16.64 31.3188C16.64 30.9499 16.36 30.6235 16 30.6235ZM1.61333 17.71C2.50667 17.71 3.22667 16.9437 3.22667 15.9929C3.22667 15.0421 2.50667 14.2758 1.62667 14.2758C0.72 14.2758 0 15.0421 0 15.9929C0 16.9437 0.72 17.71 1.61333 17.71ZM8.98667 3.64701C9.46667 3.54767 9.77333 3.03681 9.68 2.52594C9.57333 2.01508 9.10667 1.68869 8.62667 1.80222C8.13333 1.91574 7.82667 2.41242 7.93333 2.92328C8.04 3.43415 8.50667 3.76053 8.98667 3.64701ZM6 6.30067C6.58667 6.20133 6.98667 5.60532 6.89333 4.98093C6.8 4.35654 6.24 3.93082 5.65333 4.03016C5.06667 4.12949 4.66667 4.71131 4.76 5.3357C4.85333 5.96009 5.41333 6.4 6 6.30067ZM3.68 9.749C4.41333 9.64967 4.93333 8.94013 4.84 8.15965C4.74667 7.39335 4.10667 6.8541 3.4 6.91086C2.66667 6.99601 2.13333 7.69135 2.2 8.47184C2.28 9.26652 2.94667 9.83415 3.68 9.749ZM28.9467 9.749C29.68 9.64967 30.2 8.92594 30.1067 8.14545C30.0133 7.39335 29.3867 6.83991 28.6667 6.91086C27.9333 6.99601 27.4 7.69135 27.4667 8.47184C27.5467 9.26652 28.2133 9.83415 28.9467 9.749ZM2.17333 13.5947C2.98667 13.5521 3.61333 12.8142 3.57333 11.9344C3.53333 11.0829 2.84 10.416 2.02667 10.4585C2.02667 10.4585 2.02667 10.4585 2.01333 10.4585C1.2 10.5011 0.573333 11.239 0.613333 12.1047C0.666667 12.9845 1.36 13.6514 2.17333 13.5947ZM7.93333 29.0625C7.82667 29.5734 8.13333 30.0701 8.61333 30.1836C9.09333 30.2971 9.56 29.9707 9.66667 29.4599C9.77333 28.949 9.46667 28.4523 8.98667 28.3388C8.50667 28.2253 8.04 28.5517 7.93333 29.0625ZM4.76 26.6359C4.66667 27.2603 5.06667 27.8421 5.65333 27.9415C6.24 28.0408 6.78667 27.6151 6.88 26.9907C6.97333 26.3663 6.57333 25.7845 5.98667 25.6851C5.41333 25.5858 4.85333 26.0115 4.76 26.6359ZM2.2 23.4998C2.12 24.2803 2.65333 24.9898 3.38667 25.0749C4.12 25.1601 4.78667 24.5925 4.86667 23.812C4.94667 23.0315 4.41333 22.322 3.66667 22.2368C2.94667 22.1517 2.28 22.7193 2.2 23.4998ZM0.613333 19.867C0.573333 20.7326 1.2 21.4705 2.01333 21.5273C2.82667 21.5698 3.52 20.9171 3.57333 20.0514C3.57333 20.0514 3.57333 20.0514 3.57333 20.0373C3.61333 19.1716 2.98667 18.4337 2.17333 18.3769C1.36 18.3344 0.666667 19.0013 0.613333 19.867ZM19.5467 30.0701C19.1733 30.1694 18.96 30.5809 19.0533 30.9783C19.1467 31.3756 19.5333 31.6027 19.9067 31.5033C20.28 31.404 20.4933 30.9925 20.4 30.5951C20.2933 30.1978 19.92 29.9707 19.5467 30.0701ZM12.4533 30.0701C12.08 29.9707 11.7067 30.212 11.6133 30.6093C11.52 30.9925 11.7333 31.3898 12.0933 31.4891C12.4667 31.6027 12.8533 31.3756 12.96 30.9925C13.0667 30.5951 12.8533 30.1836 12.4933 30.0701C12.48 30.0701 12.4667 30.0701 12.4533 30.0701ZM20.4 1.39069C20.4933 0.993348 20.28 0.596009 19.9067 0.482483C19.5333 0.397339 19.16 0.638581 19.08 1.05011C19 1.41907 19.2 1.80222 19.5467 1.91574C19.92 2.01508 20.2933 1.78803 20.4 1.39069ZM12.9467 1.00754C12.8533 0.6102 12.4667 0.383149 12.0933 0.482483C11.72 0.596009 11.5067 0.993348 11.6 1.39069C11.6933 1.78803 12.08 2.01508 12.4533 1.91574C12.8267 1.80222 13.0533 1.40488 12.9467 1.00754Z" fill="#29539B"></path>
</svg></svg><style>@media (prefers-color-scheme: light) { :root { filter: none; } }
@media (prefers-color-scheme: dark) { :root { filter: none; } }
</style></svg>